<mxfile host="app.diagrams.net" agent="Mozilla/5.0 (Windows NT 10.0; Win64; x64) AppleWebKit/537.36 (KHTML, like Gecko) Chrome/139.0.0.0 Safari/537.36 Edg/139.0.0.0" version="28.2.5">
  <diagram name="Page-1" id="ItJo5ww-aeDm417E9Ely">
    <mxGraphModel dx="481" dy="1783" grid="1" gridSize="10" guides="1" tooltips="1" connect="1" arrows="1" fold="1" page="1" pageScale="1" pageWidth="850" pageHeight="1100" math="0" shadow="0">
      <root>
        <mxCell id="0" />
        <mxCell id="1" parent="0" />
        <mxCell id="4QmxYc0rsIyg2i_S8UWK-44" value="User" style="swimlane;" vertex="1" parent="1">
          <mxGeometry x="260" y="-20" width="129" height="140" as="geometry" />
        </mxCell>
        <mxCell id="4QmxYc0rsIyg2i_S8UWK-45" value="User ID (PK)&lt;div&gt;FirstName&lt;/div&gt;&lt;div&gt;LastName&lt;/div&gt;&lt;div&gt;Email&lt;/div&gt;&lt;div&gt;Role&lt;/div&gt;" style="text;html=1;align=left;verticalAlign=top;resizable=0;points=[];autosize=1;strokeColor=none;fillColor=none;fontSize=16;" vertex="1" parent="4QmxYc0rsIyg2i_S8UWK-44">
          <mxGeometry y="20" width="110" height="110" as="geometry" />
        </mxCell>
        <mxCell id="4QmxYc0rsIyg2i_S8UWK-46" value="Course" style="swimlane;" vertex="1" parent="1">
          <mxGeometry x="820" width="130" height="90" as="geometry" />
        </mxCell>
        <mxCell id="4QmxYc0rsIyg2i_S8UWK-47" value="CourseID (PK)&lt;div&gt;CourseName&lt;/div&gt;&lt;div&gt;Major&lt;/div&gt;" style="text;html=1;align=left;verticalAlign=top;resizable=0;points=[];autosize=1;strokeColor=none;fillColor=none;fontSize=16;" vertex="1" parent="4QmxYc0rsIyg2i_S8UWK-46">
          <mxGeometry y="20" width="130" height="70" as="geometry" />
        </mxCell>
        <mxCell id="4QmxYc0rsIyg2i_S8UWK-50" value="Enrollment" style="swimlane;" vertex="1" parent="1">
          <mxGeometry x="580" width="150" height="90" as="geometry" />
        </mxCell>
        <mxCell id="4QmxYc0rsIyg2i_S8UWK-51" value="EnrollmentID (PK)&lt;div&gt;UserID (FK)&lt;/div&gt;&lt;div&gt;CourseID (FK)&lt;/div&gt;" style="text;html=1;align=left;verticalAlign=top;resizable=0;points=[];autosize=1;strokeColor=none;fillColor=none;fontSize=16;" vertex="1" parent="4QmxYc0rsIyg2i_S8UWK-50">
          <mxGeometry y="20" width="150" height="70" as="geometry" />
        </mxCell>
        <mxCell id="4QmxYc0rsIyg2i_S8UWK-52" value="StudyGroup" style="swimlane;" vertex="1" parent="1">
          <mxGeometry x="590" y="110" width="160" height="110" as="geometry" />
        </mxCell>
        <mxCell id="4QmxYc0rsIyg2i_S8UWK-53" value="GroupID (PK)&lt;div&gt;GroupNAme&lt;/div&gt;&lt;div&gt;CourseID (FK)&lt;/div&gt;" style="text;html=1;align=left;verticalAlign=top;resizable=0;points=[];autosize=1;strokeColor=none;fillColor=none;fontSize=16;" vertex="1" parent="4QmxYc0rsIyg2i_S8UWK-52">
          <mxGeometry y="20" width="130" height="70" as="geometry" />
        </mxCell>
        <mxCell id="4QmxYc0rsIyg2i_S8UWK-54" value="UserGroup" style="swimlane;" vertex="1" parent="1">
          <mxGeometry x="425" y="160" width="110" height="70" as="geometry" />
        </mxCell>
        <mxCell id="4QmxYc0rsIyg2i_S8UWK-55" value="UserID (FK)&lt;div&gt;GroupID (FK)&lt;/div&gt;&lt;div&gt;&lt;br&gt;&lt;/div&gt;" style="text;html=1;align=left;verticalAlign=top;resizable=0;points=[];autosize=1;strokeColor=none;fillColor=none;fontSize=16;" vertex="1" parent="4QmxYc0rsIyg2i_S8UWK-54">
          <mxGeometry y="20" width="120" height="70" as="geometry" />
        </mxCell>
        <mxCell id="4QmxYc0rsIyg2i_S8UWK-56" value="StudyMaterial" style="swimlane;" vertex="1" parent="1">
          <mxGeometry x="580" y="300" width="150" height="150" as="geometry" />
        </mxCell>
        <mxCell id="4QmxYc0rsIyg2i_S8UWK-57" value="MaterialID (PK)&lt;div&gt;Title&lt;/div&gt;&lt;div&gt;FilePath&lt;/div&gt;&lt;div&gt;UploadedBy (FK)&lt;/div&gt;&lt;div&gt;ApprovedBy (FK)&lt;/div&gt;&lt;div&gt;CourseID (FK)&lt;/div&gt;" style="text;html=1;align=left;verticalAlign=top;resizable=0;points=[];autosize=1;strokeColor=none;fillColor=none;fontSize=16;" vertex="1" parent="4QmxYc0rsIyg2i_S8UWK-56">
          <mxGeometry y="20" width="150" height="130" as="geometry" />
        </mxCell>
        <mxCell id="4QmxYc0rsIyg2i_S8UWK-58" value="Assignment" style="swimlane;" vertex="1" parent="1">
          <mxGeometry x="820" y="140" width="160" height="130" as="geometry" />
        </mxCell>
        <mxCell id="4QmxYc0rsIyg2i_S8UWK-59" value="AssignmentID (PK)&lt;div&gt;Title&lt;/div&gt;&lt;div&gt;Description&lt;/div&gt;&lt;div&gt;DueDate&lt;/div&gt;&lt;div&gt;CourseID (FK)&lt;/div&gt;" style="text;html=1;align=left;verticalAlign=top;resizable=0;points=[];autosize=1;strokeColor=none;fillColor=none;fontSize=16;" vertex="1" parent="4QmxYc0rsIyg2i_S8UWK-58">
          <mxGeometry y="20" width="160" height="110" as="geometry" />
        </mxCell>
        <mxCell id="4QmxYc0rsIyg2i_S8UWK-60" value="PlannerEntry" style="swimlane;" vertex="1" parent="1">
          <mxGeometry x="820" y="320" width="160" height="110" as="geometry" />
        </mxCell>
        <mxCell id="4QmxYc0rsIyg2i_S8UWK-61" value="PlannerID (PK)&lt;div&gt;UserID (FK)&lt;/div&gt;&lt;div&gt;AssignmentID (FK)&lt;/div&gt;&lt;div&gt;Status&lt;/div&gt;" style="text;html=1;align=left;verticalAlign=top;resizable=0;points=[];autosize=1;strokeColor=none;fillColor=none;fontSize=16;" vertex="1" parent="4QmxYc0rsIyg2i_S8UWK-60">
          <mxGeometry y="20" width="160" height="90" as="geometry" />
        </mxCell>
        <mxCell id="4QmxYc0rsIyg2i_S8UWK-62" value="Question" style="swimlane;" vertex="1" parent="1">
          <mxGeometry x="350" y="290" width="170" height="120" as="geometry" />
        </mxCell>
        <mxCell id="4QmxYc0rsIyg2i_S8UWK-63" value="QuestionID (PK)&lt;div&gt;Content&lt;/div&gt;&lt;div&gt;PostedBy (FK)&lt;/div&gt;&lt;div&gt;CourseID (FK)&lt;/div&gt;" style="text;html=1;align=left;verticalAlign=top;resizable=0;points=[];autosize=1;strokeColor=none;fillColor=none;fontSize=16;" vertex="1" parent="4QmxYc0rsIyg2i_S8UWK-62">
          <mxGeometry y="20" width="140" height="90" as="geometry" />
        </mxCell>
        <mxCell id="4QmxYc0rsIyg2i_S8UWK-66" value="Answer" style="swimlane;" vertex="1" parent="1">
          <mxGeometry x="355" y="450" width="160" height="110" as="geometry" />
        </mxCell>
        <mxCell id="4QmxYc0rsIyg2i_S8UWK-67" value="AnswerID (PK)&lt;div&gt;Content&lt;br&gt;QuestionID (FK)&lt;/div&gt;&lt;div&gt;PostedBy (FK)&lt;/div&gt;" style="text;html=1;align=left;verticalAlign=top;resizable=0;points=[];autosize=1;strokeColor=none;fillColor=none;fontSize=16;" vertex="1" parent="4QmxYc0rsIyg2i_S8UWK-66">
          <mxGeometry y="20" width="140" height="90" as="geometry" />
        </mxCell>
        <mxCell id="4QmxYc0rsIyg2i_S8UWK-73" value="" style="edgeStyle=entityRelationEdgeStyle;fontSize=12;html=1;endArrow=ERmany;rounded=0;startSize=8;endSize=8;curved=1;entryX=1.007;entryY=0.285;entryDx=0;entryDy=0;entryPerimeter=0;exitX=-0.007;exitY=0.306;exitDx=0;exitDy=0;exitPerimeter=0;" edge="1" parent="1" source="4QmxYc0rsIyg2i_S8UWK-47" target="4QmxYc0rsIyg2i_S8UWK-51">
          <mxGeometry width="100" height="100" relative="1" as="geometry">
            <mxPoint x="650" y="160" as="sourcePoint" />
            <mxPoint x="770" y="50" as="targetPoint" />
          </mxGeometry>
        </mxCell>
        <mxCell id="4QmxYc0rsIyg2i_S8UWK-74" value="" style="edgeStyle=entityRelationEdgeStyle;fontSize=12;html=1;endArrow=ERmany;rounded=0;startSize=8;endSize=8;curved=1;entryX=-0.007;entryY=0.395;entryDx=0;entryDy=0;entryPerimeter=0;exitX=1;exitY=0.5;exitDx=0;exitDy=0;" edge="1" parent="1" source="4QmxYc0rsIyg2i_S8UWK-44" target="4QmxYc0rsIyg2i_S8UWK-51">
          <mxGeometry width="100" height="100" relative="1" as="geometry">
            <mxPoint x="430" y="90" as="sourcePoint" />
            <mxPoint x="630" y="80" as="targetPoint" />
          </mxGeometry>
        </mxCell>
        <mxCell id="4QmxYc0rsIyg2i_S8UWK-77" value="" style="edgeStyle=entityRelationEdgeStyle;fontSize=12;html=1;endArrow=ERmany;rounded=0;startSize=8;endSize=8;curved=1;entryX=0;entryY=0;entryDx=0;entryDy=0;exitX=1;exitY=1;exitDx=0;exitDy=0;" edge="1" parent="1" source="4QmxYc0rsIyg2i_S8UWK-44" target="4QmxYc0rsIyg2i_S8UWK-54">
          <mxGeometry width="100" height="100" relative="1" as="geometry">
            <mxPoint x="390" y="110" as="sourcePoint" />
            <mxPoint x="560" y="320" as="targetPoint" />
            <Array as="points">
              <mxPoint x="430" y="120" />
            </Array>
          </mxGeometry>
        </mxCell>
        <mxCell id="4QmxYc0rsIyg2i_S8UWK-78" value="" style="edgeStyle=entityRelationEdgeStyle;fontSize=12;html=1;endArrow=ERmany;rounded=0;startSize=8;endSize=8;curved=1;entryX=1;entryY=0.5;entryDx=0;entryDy=0;" edge="1" parent="1" source="4QmxYc0rsIyg2i_S8UWK-53" target="4QmxYc0rsIyg2i_S8UWK-54">
          <mxGeometry width="100" height="100" relative="1" as="geometry">
            <mxPoint x="710" y="230" as="sourcePoint" />
            <mxPoint x="700" y="350" as="targetPoint" />
          </mxGeometry>
        </mxCell>
        <mxCell id="4QmxYc0rsIyg2i_S8UWK-79" value="" style="edgeStyle=entityRelationEdgeStyle;fontSize=12;html=1;endArrow=ERmany;rounded=0;startSize=8;endSize=8;curved=1;entryX=0;entryY=1;entryDx=0;entryDy=0;exitX=0;exitY=1;exitDx=0;exitDy=0;" edge="1" parent="1" source="4QmxYc0rsIyg2i_S8UWK-44" target="4QmxYc0rsIyg2i_S8UWK-66">
          <mxGeometry width="100" height="100" relative="1" as="geometry">
            <mxPoint x="418" y="90" as="sourcePoint" />
            <mxPoint x="594" y="340" as="targetPoint" />
            <Array as="points">
              <mxPoint x="240" y="300" />
            </Array>
          </mxGeometry>
        </mxCell>
        <mxCell id="4QmxYc0rsIyg2i_S8UWK-80" value="" style="edgeStyle=entityRelationEdgeStyle;fontSize=12;html=1;endArrow=ERmany;rounded=0;startSize=8;endSize=8;curved=1;entryX=0;entryY=0.25;entryDx=0;entryDy=0;exitX=0.25;exitY=1;exitDx=0;exitDy=0;" edge="1" parent="1" source="4QmxYc0rsIyg2i_S8UWK-44" target="4QmxYc0rsIyg2i_S8UWK-62">
          <mxGeometry width="100" height="100" relative="1" as="geometry">
            <mxPoint x="530" y="80" as="sourcePoint" />
            <mxPoint x="420" y="270" as="targetPoint" />
          </mxGeometry>
        </mxCell>
        <mxCell id="4QmxYc0rsIyg2i_S8UWK-81" value="" style="edgeStyle=entityRelationEdgeStyle;fontSize=12;html=1;endArrow=ERmany;rounded=0;startSize=8;endSize=8;curved=1;entryX=0;entryY=0.25;entryDx=0;entryDy=0;exitX=0;exitY=1;exitDx=0;exitDy=0;" edge="1" parent="1" source="4QmxYc0rsIyg2i_S8UWK-62" target="4QmxYc0rsIyg2i_S8UWK-66">
          <mxGeometry width="100" height="100" relative="1" as="geometry">
            <mxPoint x="168.74" y="140" as="sourcePoint" />
            <mxPoint x="180" y="252.76" as="targetPoint" />
            <Array as="points">
              <mxPoint x="168.74" y="190" />
              <mxPoint x="158.74" y="210" />
            </Array>
          </mxGeometry>
        </mxCell>
        <mxCell id="4QmxYc0rsIyg2i_S8UWK-82" value="" style="edgeStyle=entityRelationEdgeStyle;fontSize=12;html=1;endArrow=ERmany;rounded=0;startSize=8;endSize=8;curved=1;entryX=-0.006;entryY=0.494;entryDx=0;entryDy=0;entryPerimeter=0;" edge="1" parent="1" target="4QmxYc0rsIyg2i_S8UWK-57">
          <mxGeometry width="100" height="100" relative="1" as="geometry">
            <mxPoint x="520" y="510" as="sourcePoint" />
            <mxPoint x="610" y="550" as="targetPoint" />
          </mxGeometry>
        </mxCell>
        <mxCell id="4QmxYc0rsIyg2i_S8UWK-83" value="" style="edgeStyle=entityRelationEdgeStyle;fontSize=12;html=1;endArrow=ERmany;rounded=0;startSize=8;endSize=8;curved=1;entryX=1.023;entryY=0.546;entryDx=0;entryDy=0;entryPerimeter=0;exitX=0.196;exitY=1.014;exitDx=0;exitDy=0;exitPerimeter=0;" edge="1" parent="1" source="4QmxYc0rsIyg2i_S8UWK-47" target="4QmxYc0rsIyg2i_S8UWK-57">
          <mxGeometry width="100" height="100" relative="1" as="geometry">
            <mxPoint x="918" y="591" as="sourcePoint" />
            <mxPoint x="830" y="590" as="targetPoint" />
          </mxGeometry>
        </mxCell>
        <mxCell id="4QmxYc0rsIyg2i_S8UWK-84" value="" style="edgeStyle=entityRelationEdgeStyle;fontSize=12;html=1;endArrow=ERmany;rounded=0;startSize=8;endSize=8;curved=1;exitX=0.093;exitY=1.014;exitDx=0;exitDy=0;exitPerimeter=0;entryX=1;entryY=0.5;entryDx=0;entryDy=0;" edge="1" parent="1" source="4QmxYc0rsIyg2i_S8UWK-47" target="4QmxYc0rsIyg2i_S8UWK-52">
          <mxGeometry width="100" height="100" relative="1" as="geometry">
            <mxPoint x="1044" y="530" as="sourcePoint" />
            <mxPoint x="1030" y="89" as="targetPoint" />
          </mxGeometry>
        </mxCell>
        <mxCell id="4QmxYc0rsIyg2i_S8UWK-85" value="" style="edgeStyle=entityRelationEdgeStyle;fontSize=12;html=1;endArrow=ERmany;rounded=0;startSize=8;endSize=8;curved=1;entryX=1;entryY=0;entryDx=0;entryDy=0;exitX=0.709;exitY=1.065;exitDx=0;exitDy=0;exitPerimeter=0;" edge="1" parent="1" source="4QmxYc0rsIyg2i_S8UWK-47" target="4QmxYc0rsIyg2i_S8UWK-58">
          <mxGeometry width="100" height="100" relative="1" as="geometry">
            <mxPoint x="1018" y="641" as="sourcePoint" />
            <mxPoint x="930" y="640" as="targetPoint" />
          </mxGeometry>
        </mxCell>
        <mxCell id="4QmxYc0rsIyg2i_S8UWK-87" value="" style="edgeStyle=entityRelationEdgeStyle;fontSize=12;html=1;endArrow=ERmany;rounded=0;startSize=8;endSize=8;curved=1;" edge="1" parent="1" target="4QmxYc0rsIyg2i_S8UWK-61">
          <mxGeometry width="100" height="100" relative="1" as="geometry">
            <mxPoint x="950" y="91" as="sourcePoint" />
            <mxPoint x="910" y="660" as="targetPoint" />
            <Array as="points">
              <mxPoint x="850" y="540" />
            </Array>
          </mxGeometry>
        </mxCell>
      </root>
    </mxGraphModel>
  </diagram>
</mxfile>
